0
SECTION
2
HEADER
9
$INSUNITS
70
1
9
$ACADVER
1
AC1014
9
$HANDSEED
5
FFFF
0
ENDSEC
0
SECTION
2
TABLES
0
TABLE
2
VPORT
5
8
100
AcDbSymbolTable
0
ENDTAB
0
TABLE
2
LTYPE
5
5
100
AcDbSymbolTable
0
LTYPE
5
14
100
AcDbSymbolTableRecord
100
AcDbLinetypeTableRecord
2
BYBLOCK
70
0
0
LTYPE
5
15
100
AcDbSymbolTableRecord
100
AcDbLinetypeTableRecord
2
BYLAYER
70
0
0
ENDTAB
0
TABLE
2
LAYER
5
2
100
AcDbSymbolTable
70
2
0
LAYER
5
50
100
AcDbSymbolTableRecord
100
AcDbLayerTableRecord
2
0
70
0
6
CONTINUOUS
0
ENDTAB
0
TABLE
2
STYLE
5
3
100
AcDbSymbolTable
70
1
0
STYLE
5
11
100
AcDbSymbolTableRecord
100
AcDbTextStyleTableRecord
2
STANDARD
70
0
0
ENDTAB
0
TABLE
2
VIEW
5
6
100
AcDbSymbolTable
70
0
0
ENDTAB
0
TABLE
2
UCS
5
7
100
AcDbSymbolTable
70
0
0
ENDTAB
0
TABLE
2
APPID
5
9
100
AcDbSymbolTable
70
2
0
APPID
5
12
100
AcDbSymbolTableRecord
100
AcDbRegAppTableRecord
2
ACAD
70
0
0
ENDTAB
0
TABLE
2
DIMSTYLE
5
A
100
AcDbSymbolTable
70
1
0
ENDTAB
0
TABLE
2
BLOCK_RECORD
5
1
100
AcDbSymbolTable
70
1
0
BLOCK_RECORD
5
1F
100
AcDbSymbolTableRecord
100
AcDbBlockTableRecord
2
*MODEL_SPACE
0
BLOCK_RECORD
5
1B
100
AcDbSymbolTableRecord
100
AcDbBlockTableRecord
2
*PAPER_SPACE
0
ENDTAB
0
ENDSEC
0
SECTION
2
BLOCKS
0
BLOCK
5
20
100
AcDbEntity
100
AcDbBlockBegin
2
*MODEL_SPACE
0
ENDBLK
5
21
100
AcDbEntity
100
AcDbBlockEnd
0
BLOCK
5
1C
100
AcDbEntity
100
AcDbBlockBegin
2
*PAPER_SPACE
0
ENDBLK
5
1D
100
AcDbEntity
100
AcDbBlockEnd
0
ENDSEC
0
SECTION
2
ENTITIES
0
LINE
5
100
100
AcDbEntity
8
0
100
AcDbLine
10
3.5602902447431428
20
1.6119999999999952
30
0
11
3.5602902447431428
21
0.18799999999999445
31
0
0
LINE
5
101
100
AcDbEntity
8
0
100
AcDbLine
10
5.9977203263241901
20
-5.0484550922915582e-15
30
0
11
0
21
0
31
0
0
LINE
5
102
100
AcDbEntity
8
0
100
AcDbLine
10
2.4374300815810477
20
1.6119999999999952
30
0
11
2.4374300815810477
21
0.18800000000000006
31
0
0
CIRCLE
5
103
100
AcDbEntity
8
0
100
AcDbCircle
10
4.6857203263241898
20
0.37499999999999606
30
0
40
0.12499999999999997
210
0
220
-0
230
1
0
CIRCLE
5
104
100
AcDbEntity
8
0
100
AcDbCircle
10
5.6857203263241898
20
0.37499999999999739
30
0
40
0.12499999999999994
210
0
220
-0
230
1
0
ARC
5
105
100
AcDbEntity
8
0
100
AcDbCircle
10
5.9977203263241901
20
0.099999999999994926
30
0
40
0.099999999999999978
210
-0
220
0
230
1
100
AcDbArc
50
-90
51
0
0
LINE
5
106
100
AcDbEntity
8
0
100
AcDbLine
10
6.0977203263241897
20
0.62890580790408557
30
0
11
6.0977203263241906
21
0.099999999999994926
31
0
0
ARC
5
107
100
AcDbEntity
8
0
100
AcDbCircle
10
5.9977203263241901
20
0.62890580790408568
30
0
40
0.099999999999999811
210
-0
220
0
230
1
100
AcDbArc
50
0
51
58.752049360409615
0
LINE
5
108
100
AcDbEntity
8
0
100
AcDbLine
10
4.2843436323340685
20
1.7854930425652906
30
0
11
6.0495945942508662
21
0.71439885046938112
31
0
0
ARC
5
109
100
AcDbEntity
8
0
100
AcDbCircle
10
4.2324693644073923
20
1.6999999999999955
30
0
40
0.099999999999999728
210
0
220
-0
230
1
100
AcDbArc
50
58.752049360409572
51
90
0
LINE
5
110
100
AcDbEntity
8
0
100
AcDbLine
10
3.478860163162095
20
1.7999999999999938
30
0
11
4.2324693644073923
21
1.7999999999999954
31
0
0
ARC
5
111
100
AcDbEntity
8
0
100
AcDbCircle
10
3.478860163162095
20
1.8359999999999941
30
0
40
0.036000000000000157
210
0
220
-0
230
1
100
AcDbArc
50
90
51
270
0
LINE
5
112
100
AcDbEntity
8
0
100
AcDbLine
10
3.4788601631620963
20
6.8999999999999924
30
0
11
3.478860163162095
21
1.8719999999999943
31
0
0
ARC
5
113
100
AcDbEntity
8
0
100
AcDbCircle
10
2.5188601631620955
20
1.8359999999999954
30
0
40
0.036000000000000157
210
-0
220
0
230
1
100
AcDbArc
50
-90
51
90
0
LINE
5
114
100
AcDbEntity
8
0
100
AcDbLine
10
2.5188601631620955
20
1.8719999999999957
30
0
11
2.5188601631620955
21
6.899999999999995
31
0
0
LINE
5
115
100
AcDbEntity
8
0
100
AcDbLine
10
1.7652509619167982
20
1.7999999999999954
30
0
11
2.5188601631620955
21
1.7999999999999954
31
0
0
ARC
5
116
100
AcDbEntity
8
0
100
AcDbCircle
10
1.7652509619167982
20
1.6999999999999955
30
0
40
0.099999999999999811
210
0
220
-0
230
1
100
AcDbArc
50
90
51
121.247950639591
0
LINE
5
117
100
AcDbEntity
8
0
100
AcDbLine
10
-0.051874267926677126
20
0.71439885046938167
30
0
11
1.7133766939901212
21
1.7854930425652906
31
0
0
ARC
5
118
100
AcDbEntity
8
0
100
AcDbCircle
10
0
20
0.62890580790408568
30
0
40
0.10000000000000098
210
0
220
0
230
1
100
AcDbArc
50
121.24795063959063
51
180
0
LINE
5
119
100
AcDbEntity
8
0
100
AcDbLine
10
-0.099999999999999978
20
0.10000000000000053
30
0
11
-0.099999999999999811
21
0.62890580790408568
31
0
0
CIRCLE
5
120
100
AcDbEntity
8
0
100
AcDbCircle
10
0.31200000000000044
20
0.37499999999999739
30
0
40
0.12499999999999994
210
0
220
-0
230
1
0
CIRCLE
5
121
100
AcDbEntity
8
0
100
AcDbCircle
10
1.3120000000000003
20
0.37499999999999867
30
0
40
0.12499999999999997
210
0
220
-0
230
1
0
ARC
5
122
100
AcDbEntity
8
0
100
AcDbCircle
10
0
20
0.10000000000000052
30
0
40
0.099999999999999978
210
0
220
0
230
1
100
AcDbArc
50
180
51
270
0
ARC
5
123
100
AcDbEntity
8
0
100
AcDbCircle
10
3.4788601631620959
20
6.9359999999999919
30
0
40
0.036000000000000858
210
0
220
0
230
1
100
AcDbArc
50
90.000000000001407
51
270.00000000000074
0
LINE
5
124
100
AcDbEntity
8
0
100
AcDbLine
10
4.2062989700868805
20
6.9719999999999924
30
0
11
3.478860163162095
21
6.9719999999999924
31
0
0
LINE
5
125
100
AcDbEntity
8
0
100
AcDbLine
10
3.5602902447431419
20
7.1599999999999904
30
0
11
3.5602902447431419
21
7.8119999999999976
31
0
0
CIRCLE
5
126
100
AcDbEntity
8
0
100
AcDbCircle
10
4.1227203263241901
20
7.4849999999999959
30
0
40
0.20000000000000034
210
0
220
-0
230
1
0
ARC
5
127
100
AcDbEntity
8
0
100
AcDbCircle
10
4.2062989700868805
20
7.071999999999993
30
0
40
0.10000000000000052
210
-0
220
0
230
1
100
AcDbArc
50
270
51
314.99999999999966
0
LINE
5
128
100
AcDbEntity
8
0
100
AcDbLine
10
4.2770096482055351
20
7.0012893218813375
30
0
11
4.4684310044428441
21
7.1927106781186474
31
0
0
ARC
5
129
100
AcDbEntity
8
0
100
AcDbCircle
10
4.3977203263241895
20
7.2634213562373011
30
0
40
0.099999999999999353
210
-0
220
0
230
1
100
AcDbArc
50
-44.999999999999652
51
0
0
LINE
5
130
100
AcDbEntity
8
0
100
AcDbLine
10
4.4977203263241892
20
7.7085786437626842
30
0
11
4.4977203263241901
21
7.2634213562373011
31
0
0
ARC
5
131
100
AcDbEntity
8
0
100
AcDbCircle
10
4.3977203263241895
20
7.7085786437626851
30
0
40
0.099999999999999811
210
-0
220
0
230
1
100
AcDbArc
50
0
51
45
0
LINE
5
132
100
AcDbEntity
8
0
100
AcDbLine
10
4.468431004442845
20
7.7792893218813406
30
0
11
4.2770096482055351
21
7.9707106781186514
31
0
0
ARC
5
133
100
AcDbEntity
8
0
100
AcDbCircle
10
4.2062989700868796
20
7.8999999999999977
30
0
40
0.10000000000000034
210
0
220
-0
230
1
100
AcDbArc
50
44.999999999999275
51
90
0
LINE
5
134
100
AcDbEntity
8
0
100
AcDbLine
10
1.7914213562373098
20
7.9999999999999956
30
0
11
4.2062989700868796
21
7.9999999999999982
31
0
0
LINE
5
135
100
AcDbEntity
8
0
100
AcDbLine
10
2.4374300815810477
20
7.159999999999993
30
0
11
2.4374300815810477
21
7.8119999999999976
31
0
0
CIRCLE
5
136
100
AcDbEntity
8
0
100
AcDbCircle
10
1.8750000000000002
20
7.4849999999999959
30
0
40
0.19999999999999962
210
0
220
-0
230
1
0
ARC
5
137
100
AcDbEntity
8
0
100
AcDbCircle
10
1.7914213562373094
20
7.899999999999995
30
0
40
0.10000000000000052
210
0
220
-0
230
1
100
AcDbArc
50
89.999999999999744
51
134.9999999999994
0
LINE
5
138
100
AcDbEntity
8
0
100
AcDbLine
10
1.7207106781186554
20
7.9707106781186505
30
0
11
1.5292893218813457
21
7.7792893218813397
31
0
0
ARC
5
139
100
AcDbEntity
8
0
100
AcDbCircle
10
1.6000000000000005
20
7.7085786437626851
30
0
40
0.099999999999999728
210
0
220
0
230
1
100
AcDbArc
50
135.00000000000011
51
180
0
LINE
5
140
100
AcDbEntity
8
0
100
AcDbLine
10
1.5000000000000007
20
7.2634213562373073
30
0
11
1.5000000000000004
21
7.7085786437626851
31
0
0
ARC
5
141
100
AcDbEntity
8
0
100
AcDbCircle
10
1.6000000000000005
20
7.2634213562373056
30
0
40
0.099999999999999992
210
0
220
0
230
1
100
AcDbArc
50
180
51
224.99999999999989
0
LINE
5
142
100
AcDbEntity
8
0
100
AcDbLine
10
1.5292893218813457
20
7.1927106781186501
30
0
11
1.7207106781186559
21
7.0012893218813392
31
0
0
ARC
5
143
100
AcDbEntity
8
0
100
AcDbCircle
10
1.7914213562373109
20
7.071999999999993
30
0
40
0.099999999999999867
210
0
220
0
230
1
100
AcDbArc
50
224.99999999999946
51
270
0
LINE
5
144
100
AcDbEntity
8
0
100
AcDbLine
10
2.5188601631620955
20
6.9719999999999942
30
0
11
1.7914213562373109
21
6.9719999999999924
31
0
0
ARC
5
145
100
AcDbEntity
8
0
100
AcDbCircle
10
2.5188601631620955
20
6.9359999999999946
30
0
40
0.035999999999999456
210
-0
220
0
230
1
100
AcDbArc
50
-90
51
90.000000000000711
0
ENDSEC
0
SECTION
2
OBJECTS
0
DICTIONARY
5
C
100
AcDbDictionary
3
ACAD_GROUP
350
D
3
ACAD_MLINESTYLE
350
17
0
DICTIONARY
5
D
100
AcDbDictionary
0
DICTIONARY
5
1A
330
C
100
AcDbDictionary
0
DICTIONARY
5
17
100
AcDbDictionary
0
ENDSEC
0
EOF
