0
SECTION
2
HEADER
9
$INSUNITS
70
1
9
$ACADVER
1
AC1014
9
$HANDSEED
5
FFFF
0
ENDSEC
0
SECTION
2
TABLES
0
TABLE
2
VPORT
5
8
100
AcDbSymbolTable
0
ENDTAB
0
TABLE
2
LTYPE
5
5
100
AcDbSymbolTable
0
LTYPE
5
14
100
AcDbSymbolTableRecord
100
AcDbLinetypeTableRecord
2
BYBLOCK
70
0
0
LTYPE
5
15
100
AcDbSymbolTableRecord
100
AcDbLinetypeTableRecord
2
BYLAYER
70
0
0
ENDTAB
0
TABLE
2
LAYER
5
2
100
AcDbSymbolTable
70
2
0
LAYER
5
50
100
AcDbSymbolTableRecord
100
AcDbLayerTableRecord
2
0
70
0
6
CONTINUOUS
0
ENDTAB
0
TABLE
2
STYLE
5
3
100
AcDbSymbolTable
70
1
0
STYLE
5
11
100
AcDbSymbolTableRecord
100
AcDbTextStyleTableRecord
2
STANDARD
70
0
0
ENDTAB
0
TABLE
2
VIEW
5
6
100
AcDbSymbolTable
70
0
0
ENDTAB
0
TABLE
2
UCS
5
7
100
AcDbSymbolTable
70
0
0
ENDTAB
0
TABLE
2
APPID
5
9
100
AcDbSymbolTable
70
2
0
APPID
5
12
100
AcDbSymbolTableRecord
100
AcDbRegAppTableRecord
2
ACAD
70
0
0
ENDTAB
0
TABLE
2
DIMSTYLE
5
A
100
AcDbSymbolTable
70
1
0
ENDTAB
0
TABLE
2
BLOCK_RECORD
5
1
100
AcDbSymbolTable
70
1
0
BLOCK_RECORD
5
1F
100
AcDbSymbolTableRecord
100
AcDbBlockTableRecord
2
*MODEL_SPACE
0
BLOCK_RECORD
5
1B
100
AcDbSymbolTableRecord
100
AcDbBlockTableRecord
2
*PAPER_SPACE
0
ENDTAB
0
ENDSEC
0
SECTION
2
BLOCKS
0
BLOCK
5
20
100
AcDbEntity
100
AcDbBlockBegin
2
*MODEL_SPACE
0
ENDBLK
5
21
100
AcDbEntity
100
AcDbBlockEnd
0
BLOCK
5
1C
100
AcDbEntity
100
AcDbBlockBegin
2
*PAPER_SPACE
0
ENDBLK
5
1D
100
AcDbEntity
100
AcDbBlockEnd
0
ENDSEC
0
SECTION
2
ENTITIES
0
CIRCLE
5
100
100
AcDbEntity
8
0
100
AcDbCircle
10
-1.0851186432503612
20
1.9776933937594547
30
0
40
0.12499999999999994
210
0
220
-0
230
1
0
CIRCLE
5
101
100
AcDbEntity
8
0
100
AcDbCircle
10
-1.1686891524522875e-08
20
0.3749999999999995
30
0
40
0.12499999999999994
210
0
220
0
230
1
0
LWPOLYLINE
5
102
100
AcDbEntity
8
0
100
AcDbPolyline
90
6
70
1
43
0.0
10
2.4966474636391309
20
0.61874002805570072
42
-0.68143353072494517
10
2.4285591636182442
20
0.44550080768665479
10
1.0741836241265481
20
0.44550080768665479
42
-0.76649526494287101
10
1.0240023173296018
20
0.63199841718050576
10
1.8579593306974584
20
1.1158158658725672
42
-0.32990878194787782
10
1.9762289375152911
20
1.1025574767477624
0
CIRCLE
5
103
100
AcDbEntity
8
0
100
AcDbCircle
10
3.8563860180732981
20
1.5857615368173668
30
0
40
0.74803149606299224
210
0
220
0
230
1
0
CIRCLE
5
104
100
AcDbEntity
8
0
100
AcDbCircle
10
3.9040421709007589
20
0.27820376943019187
30
0
40
0.098425196850393581
210
0
220
0
230
1
0
CIRCLE
5
105
100
AcDbEntity
8
0
100
AcDbCircle
10
5.1639437854604724
20
1.6334176896448283
30
0
40
0.098425196850393346
210
0
220
0
230
1
0
CIRCLE
5
106
100
AcDbEntity
8
0
100
AcDbCircle
10
2.5488282506861228
20
1.5381053839899055
30
0
40
0.098425196850393581
210
0
220
0
230
1
0
CIRCLE
5
107
100
AcDbEntity
8
0
100
AcDbCircle
10
3.8087298652458368
20
2.8933193042045415
30
0
40
0.098425196850393692
210
0
220
0
230
1
0
CIRCLE
5
108
100
AcDbEntity
8
0
100
AcDbCircle
10
3.7058829550838035
20
3.773762677455093
30
0
40
0.12499999999999994
210
0
220
0
230
1
0
LWPOLYLINE
5
109
100
AcDbEntity
8
0
100
AcDbPolyline
90
6
70
1
43
0.0
10
5.2274481083477342
20
4.5292264448736033
42
-0.71938247424613433
10
5.4001692084862274
20
4.4509717493490362
10
5.2087983231376977
20
2.5783379923086871
42
-0.61928764741221864
10
5.0412281433473636
20
2.5152651674433204
10
4.2100465241675629
20
3.2879897154845139
42
-0.41421356237309359
10
4.2048956038194039
20
3.4293172358744477
0
ARC
5
110
100
AcDbEntity
8
0
100
AcDbCircle
10
4.7946343801796605
20
6.1238527719784006
30
0
40
0.099999999999999381
210
0
220
-0
230
1
100
AcDbArc
50
47.08731761387137
51
137.08731761387176
0
LINE
5
111
100
AcDbEntity
8
0
100
AcDbLine
10
4.7213951598106148
20
6.1919410719992865
30
0
11
3.7866271079699971
21
5.1864572616868267
31
0
0
ARC
5
112
100
AcDbEntity
8
0
100
AcDbCircle
10
3.8598663283390433
20
5.11836896166594
30
0
40
0.099999999999999908
210
0
220
0
230
1
100
AcDbArc
50
137.08731761387156
51
227.08731761387153
0
LINE
5
113
100
AcDbEntity
8
0
100
AcDbLine
10
3.791778028318157
20
5.0451297412968943
30
0
11
4.3797009912366338
21
4.4985554483613512
31
0
0
ARC
5
114
100
AcDbEntity
8
0
100
AcDbCircle
10
4.3371458037235797
20
4.452780935630698
30
0
40
0.062499999999999799
210
0
220
0
230
1
100
AcDbArc
50
-132.91268238612821
51
47.087317613871242
0
LINE
5
115
100
AcDbEntity
8
0
100
AcDbLine
10
4.2945906162105256
20
4.4070064229000439
30
0
11
4.1073477911530878
21
4.2055985668851665
31
0
0
ARC
5
116
100
AcDbEntity
8
0
100
AcDbCircle
10
3.8143909096769022
20
4.4779517669687126
30
0
40
0.40000000000000008
210
0
220
0
230
1
100
AcDbArc
50
261.24023301280977
51
317.08731761387173
0
ARC
5
117
100
AcDbEntity
8
0
100
AcDbCircle
10
3.7058829550838035
20
3.773762677455093
30
0
40
0.31249999999999944
210
0
220
-0
230
1
100
AcDbArc
50
81.240233012809796
51
217.34507099717663
0
ARC
5
118
100
AcDbEntity
8
0
100
AcDbCircle
10
3.1394479191171807
20
3.3415502296594624
30
0
40
0.40000000000000041
210
0
220
-0
230
1
100
AcDbArc
50
12.684615669485536
51
37.345070997176457
0
ARC
5
119
100
AcDbEntity
8
0
100
AcDbCircle
10
2.1960850712127784
20
3.1292203781106265
30
0
40
1.3669629923968423
210
0
220
0
230
1
100
AcDbArc
50
-98.495021923008537
51
12.684615669485536
0
ARC
5
120
100
AcDbEntity
8
0
100
AcDbCircle
10
2.0532419318986315
20
2.1728662249770005
30
0
40
0.40000000000000013
210
0
220
0
230
1
100
AcDbArc
50
236.81257115705179
51
261.50497807699145
0
ARC
5
121
100
AcDbEntity
8
0
100
AcDbCircle
10
1.6632339544572041
20
1.5765860663837039
30
0
40
0.31249999999999989
210
0
220
-0
230
1
100
AcDbArc
50
56.81257115705187
51
124.10033404623415
0
LINE
5
122
100
AcDbEntity
8
0
100
AcDbLine
10
1.4880327599832746
20
1.8353538994984642
30
0
11
0.51506570747177627
21
1.1765974082764894
31
0
0
ARC
5
123
100
AcDbEntity
8
0
100
AcDbCircle
10
0.46331214084882361
20
1.1415571693817033
30
0
40
0.06249999999999966
210
0
220
0
230
1
100
AcDbArc
50
-145.89966595376532
51
34.100334046233996
0
LINE
5
124
100
AcDbEntity
8
0
100
AcDbLine
10
0.41155857422587222
20
1.1065169304869171
30
0
11
-0.68526032880720977
21
2.7264913359662826
31
0
0
ARC
5
125
100
AcDbEntity
8
0
100
AcDbCircle
10
-0.93367744859737978
20
2.5582981892713104
30
0
40
0.30000000000000016
210
0
220
-0
230
1
100
AcDbArc
50
34.100334046234089
51
158.20066825150948
0
LINE
5
126
100
AcDbEntity
8
0
100
AcDbLine
10
-1.2122244960426929
20
2.6697052911970784
30
0
11
-1.4333024478304401
21
2.116952282984315
31
0
0
ARC
5
127
100
AcDbEntity
8
0
100
AcDbCircle
10
-1.0851186432503612
20
1.9776933937594547
30
0
40
0.3750000000000005
210
0
220
0
230
1
100
AcDbArc
50
158.20066630684275
51
207.62425731933982
0
LINE
5
128
100
AcDbEntity
8
0
100
AcDbLine
10
-1.4173714010492422
20
1.803816699130651
30
0
11
-0.28482720156938979
21
0.13107691395925766
31
0
0
ARC
5
129
100
AcDbEntity
8
0
100
AcDbCircle
10
-1.1686891524522875e-08
20
0.3749999999999995
30
0
40
0.37499999999999978
210
0
220
0
230
1
100
AcDbArc
50
220.57641077312493
51
270.0000017856255
0
LINE
5
130
100
AcDbEntity
8
0
100
AcDbLine
10
-2.4040262344245512e-16
20
-1.7483827159451283e-16
30
0
11
3.8706099050304368
21
-1.0864951775102055e-08
31
0
0
ARC
5
131
100
AcDbEntity
8
0
100
AcDbCircle
10
3.8706099050304368
20
0.099999989135047776
30
0
40
0.099999999999999561
210
0
220
0
230
1
100
AcDbArc
50
270
51
317.08731761387173
0
LINE
5
132
100
AcDbEntity
8
0
100
AcDbLine
10
3.943849125399483
20
0.031911689114161541
30
0
11
5.4193142002352106
21
1.6189965734419602
31
0
0
ARC
5
133
100
AcDbEntity
8
0
100
AcDbCircle
10
5.3460749798661675
20
1.6870848734628459
30
0
40
0.099999999999997133
210
0
220
0
230
1
100
AcDbArc
50
317.08731761387082
51
354.16500353021479
0
LINE
5
134
100
AcDbEntity
8
0
100
AcDbLine
10
5.4455568596356123
20
1.676918477959167
30
0
11
5.8117815697036512
21
5.2605605428778537
31
0
0
ARC
5
135
100
AcDbEntity
8
0
100
AcDbCircle
10
5.7122996899342064
20
5.2707269383815358
30
0
40
0.099999999999997244
210
0
220
0
230
1
100
AcDbArc
50
-5.8349964697871144
51
47.087317613872145
0
LINE
5
136
100
AcDbEntity
8
0
100
AcDbLine
10
5.7803879899550905
20
5.3439661587505807
30
0
11
4.8627226802005472
21
6.1970919923474463
31
0
0
LINE
5
137
100
AcDbEntity
8
0
100
AcDbLine
10
4.4248753884761252
20
4.7132512357859317
30
0
11
5.2398080322799832
21
5.5898340182488697
31
0
0
LINE
5
138
100
AcDbEntity
8
0
100
AcDbLine
10
-0.42651400426193781
20
0.6756735829500482
30
0
11
0.19247652333910409
21
1.0947669397184501
31
0
0
LINE
5
139
100
AcDbEntity
8
0
100
AcDbLine
10
-0.92896001018390162
20
1.4177739128021913
30
0
11
-0.30996948258286172
21
1.8368672695705923
31
0
0
LWPOLYLINE
5
140
100
AcDbEntity
8
0
100
AcDbPolyline
90
4
70
1
43
0.0
10
1.3199041264406617
20
1.1925725805752423
10
1.7191394872013142
20
1.4647845842441669
42
1.1103390823845483
10
1.5853531333898663
20
1.6743591593585996
10
1.1793790669471742
20
1.3993395169843588
42
1.0015066573226119
0
LWPOLYLINE
5
141
100
AcDbEntity
8
0
100
AcDbPolyline
90
4
70
1
43
0.0
10
4.6303694674462728
20
5.38906229950023
42
-0.99999999999999989
10
4.4106518063391347
20
5.593327199562891
10
4.7170491564317194
20
5.9229036912220874
42
-0.99999999999999989
10
4.9367668175416686
20
5.7186387911624514
0
ENDSEC
0
SECTION
2
OBJECTS
0
DICTIONARY
5
C
100
AcDbDictionary
3
ACAD_GROUP
350
D
3
ACAD_MLINESTYLE
350
17
0
DICTIONARY
5
D
100
AcDbDictionary
0
DICTIONARY
5
1A
330
C
100
AcDbDictionary
0
DICTIONARY
5
17
100
AcDbDictionary
0
ENDSEC
0
EOF
