0
SECTION
2
HEADER
9
$INSUNITS
70
1
9
$ACADVER
1
AC1014
9
$HANDSEED
5
FFFF
0
ENDSEC
0
SECTION
2
TABLES
0
TABLE
2
VPORT
5
8
100
AcDbSymbolTable
0
ENDTAB
0
TABLE
2
LTYPE
5
5
100
AcDbSymbolTable
0
LTYPE
5
14
100
AcDbSymbolTableRecord
100
AcDbLinetypeTableRecord
2
BYBLOCK
70
0
0
LTYPE
5
15
100
AcDbSymbolTableRecord
100
AcDbLinetypeTableRecord
2
BYLAYER
70
0
0
ENDTAB
0
TABLE
2
LAYER
5
2
100
AcDbSymbolTable
70
2
0
LAYER
5
50
100
AcDbSymbolTableRecord
100
AcDbLayerTableRecord
2
0
70
0
6
CONTINUOUS
0
ENDTAB
0
TABLE
2
STYLE
5
3
100
AcDbSymbolTable
70
1
0
STYLE
5
11
100
AcDbSymbolTableRecord
100
AcDbTextStyleTableRecord
2
STANDARD
70
0
0
ENDTAB
0
TABLE
2
VIEW
5
6
100
AcDbSymbolTable
70
0
0
ENDTAB
0
TABLE
2
UCS
5
7
100
AcDbSymbolTable
70
0
0
ENDTAB
0
TABLE
2
APPID
5
9
100
AcDbSymbolTable
70
2
0
APPID
5
12
100
AcDbSymbolTableRecord
100
AcDbRegAppTableRecord
2
ACAD
70
0
0
ENDTAB
0
TABLE
2
DIMSTYLE
5
A
100
AcDbSymbolTable
70
1
0
ENDTAB
0
TABLE
2
BLOCK_RECORD
5
1
100
AcDbSymbolTable
70
1
0
BLOCK_RECORD
5
1F
100
AcDbSymbolTableRecord
100
AcDbBlockTableRecord
2
*MODEL_SPACE
0
BLOCK_RECORD
5
1B
100
AcDbSymbolTableRecord
100
AcDbBlockTableRecord
2
*PAPER_SPACE
0
ENDTAB
0
ENDSEC
0
SECTION
2
BLOCKS
0
BLOCK
5
20
100
AcDbEntity
100
AcDbBlockBegin
2
*MODEL_SPACE
0
ENDBLK
5
21
100
AcDbEntity
100
AcDbBlockEnd
0
BLOCK
5
1C
100
AcDbEntity
100
AcDbBlockBegin
2
*PAPER_SPACE
0
ENDBLK
5
1D
100
AcDbEntity
100
AcDbBlockEnd
0
ENDSEC
0
SECTION
2
ENTITIES
0
LWPOLYLINE
5
100
100
AcDbEntity
8
0
100
AcDbPolyline
90
24
70
1
43
0.0
10
0.19999999999999962
20
5.9842519685039361
42
0.41421356237309348
10
-3.0596697529039742e-16
20
5.7842519685039369
10
0
20
2.6749999999999994
42
0.41421356237309498
10
0.30000000000000016
20
2.3749999999999996
10
0.84999999999999987
20
2.375
42
-0.4142135623730952
10
1.1499999999999999
20
2.0750000000000002
10
1.1499999999999999
20
1.5418810851053006
42
-0.24469844322903456
10
0.93678821817552282
20
1.1323050629608045
10
0.072852963577388102
20
0.52737108516606568
42
0.22410135981203774
10
-4.3709567898628207e-17
20
0.37298963832433168
10
0
20
0.20000000000000034
42
0.41421356237309559
10
0.20000000000000004
20
0
10
3.8000000000000003
20
0
42
0.41421356237309798
10
3.9999999999999996
20
0.20000000000000004
10
3.9999999999999996
20
0.37224548077791153
42
0.24469844322902848
10
3.9147152872702096
20
0.53607588963570996
10
3.0632117818244762
20
1.1323050629608047
42
-0.24469844322903442
10
2.8499999999999992
20
1.5418810851053004
10
2.8499999999999996
20
2.0750000000000015
42
-0.41421356237309503
10
3.1499999999999995
20
2.3750000000000009
10
3.6999999999999997
20
2.3750000000000009
42
0.41421356237309503
10
3.9999999999999996
20
2.6750000000000007
10
3.9999999999999996
20
5.7842519685039369
42
0.41421356237309304
10
3.8000000000000003
20
5.9842519685039361
0
LWPOLYLINE
5
101
100
AcDbEntity
8
0
100
AcDbPolyline
90
6
70
1
43
0.0
10
0.90165028042627182
20
5.484251968503937
10
3.0983497195737271
20
5.484251968503937
42
-0.55749357367319585
10
3.1430740088559093
20
5.4118971491532086
10
2.0447242892821818
20
3.2144778893273021
42
-0.61812453798534106
10
1.9552757107178178
20
3.2144778893273012
10
0.85692599114408952
20
5.4118971491532086
42
-0.55749357367319641
0
LWPOLYLINE
5
102
100
AcDbEntity
8
0
100
AcDbPolyline
90
6
70
1
43
0.0
10
0.25035874097762378
20
3.4249999967798606
10
0.25035872629506745
20
4.7928809230797995
42
-0.7801403369712141
10
0.34443911406998151
20
4.8164800637197471
10
1.2105975240588844
20
3.1985991401032576
42
-0.56671250998393885
10
1.1665171362839704
20
3.1249999999999996
10
0.55035874097762383
20
3.1249999999999996
42
-0.41421355922923869
0
LWPOLYLINE
5
103
100
AcDbEntity
8
0
100
AcDbPolyline
90
6
70
1
43
0.0
10
3.7499999816140654
20
4.7935509473403775
10
3.7499999816140694
20
3.4250000000000007
42
-0.41421356237309576
10
3.4499999816140701
20
3.125
10
2.8334828637160299
20
3.125
42
-0.56671250998393885
10
2.7894024759411153
20
3.1985991401032581
10
3.6559195938391533
20
4.8171500874436362
42
-0.78014033265456384
0
CIRCLE
5
104
100
AcDbEntity
8
0
100
AcDbCircle
10
0.99999999999999989
20
2.75
30
0
40
0.12499999999999994
210
0
220
0
230
1
0
CIRCLE
5
105
100
AcDbEntity
8
0
100
AcDbCircle
10
2.9999999999999996
20
2.75
30
0
40
0.12499999999999994
210
0
220
0
230
1
0
CIRCLE
5
106
100
AcDbEntity
8
0
100
AcDbCircle
10
0.24999999999999997
20
0.19685039370078738
30
0
40
0.13499999999999998
210
0
220
0
230
1
0
CIRCLE
5
107
100
AcDbEntity
8
0
100
AcDbCircle
10
3.75
20
5.7874015748031491
30
0
40
0.13500000000000006
210
0
220
0
230
1
0
CIRCLE
5
108
100
AcDbEntity
8
0
100
AcDbCircle
10
0.24999999999999997
20
5.7874015748031491
30
0
40
0.13500000000000004
210
0
220
0
230
1
0
CIRCLE
5
109
100
AcDbEntity
8
0
100
AcDbCircle
10
3.75
20
0.19685039370078738
30
0
40
0.13500000000000006
210
0
220
0
230
1
0
ENDSEC
0
SECTION
2
OBJECTS
0
DICTIONARY
5
C
100
AcDbDictionary
3
ACAD_GROUP
350
D
3
ACAD_MLINESTYLE
350
17
0
DICTIONARY
5
D
100
AcDbDictionary
0
DICTIONARY
5
1A
330
C
100
AcDbDictionary
0
DICTIONARY
5
17
100
AcDbDictionary
0
ENDSEC
0
EOF
